<svg xmlns="http://www.w3.org/2000/svg" xml:space="preserve" style="enable-background:new 0 0 4706 2130" viewBox="0 0 4706 2130"><path d="M152.7 1472.4h180.2V875.1l3-119.2-3-3L230.2 817 114 887 93.1 717.2l324.7-214.5h120.7v969.7h175.8v149H152.7v-149zm1533.6-406.7c0 101.3-7.9 188.2-23.8 260.7s-40.7 132.1-74.5 178.8c-32.8 45.7-75 79.4-126.6 101.3-50.7 20.8-111.7 31.3-183.2 31.3-72.5 0-134.6-10.4-186.2-31.3-50.6-21.8-92.4-55.6-125.1-101.3-32.8-46.7-57.1-106.3-73-178.8-14.9-72.5-22.3-159.4-22.3-260.7 0-105.3 7.4-194.1 22.3-266.6 15.9-73.5 40.2-133.1 73-178.8s75-78.5 126.6-98.3c51.6-20.9 113.7-31.3 186.2-31.3 71.5 0 132.6 10.4 183.2 31.3 51.6 19.9 93.8 52.6 126.6 98.3 32.8 45.7 57.1 105.3 73 178.8 15.9 72.5 23.8 161.4 23.8 266.6zm-196.6-2.9c0-81.4-4.5-147.5-13.4-198.1-7.9-51.6-20.4-91.4-37.2-119.2-16.9-28.8-38.7-48.2-65.6-58.1-26.8-10.9-58.1-16.4-93.8-16.4-36.7 0-68.5 5.5-95.3 16.4-26.8 9.9-49.1 29.3-67 58.1-16.9 28.8-29.8 69-38.7 120.7-7.9 50.6-11.9 116.7-11.9 198.1 0 83.4 4 150.9 11.9 202.6 8.9 51.6 21.9 91.9 38.7 120.7 17.9 28.8 40.2 48.2 67 58.1s58.6 14.9 95.3 14.9c35.8 0 67-5 93.8-14.9 26.8-10.9 48.7-30.8 65.6-59.6 16.9-28.8 29.3-69 37.2-120.7 8.9-52.7 13.4-120.2 13.4-202.6zm1097.1 2.9c0 101.3-7.9 188.2-23.8 260.7s-40.7 132.1-74.5 178.8c-32.8 45.7-75 79.4-126.6 101.3-50.6 20.8-111.7 31.3-183.2 31.3-72.5 0-134.6-10.4-186.2-31.3-50.6-21.8-92.4-55.6-125.1-101.3-32.8-46.7-57.1-106.3-73-178.8-14.9-72.5-22.3-159.4-22.3-260.7 0-105.3 7.4-194.1 22.3-266.6 15.9-73.5 40.2-133.1 73-178.8s75-78.5 126.6-98.3c51.6-20.9 113.7-31.3 186.2-31.3 71.5 0 132.6 10.4 183.2 31.3 51.6 19.9 93.8 52.6 126.6 98.3s57.1 105.3 73 178.8c15.9 72.5 23.8 161.4 23.8 266.6zm-196.6-2.9c0-81.4-4.5-147.5-13.4-198.1-7.9-51.6-20.4-91.4-37.2-119.2-16.9-28.8-38.7-48.2-65.5-58.1-26.8-10.9-58.1-16.4-93.8-16.4-36.8 0-68.5 5.5-95.3 16.4-26.8 9.9-49.2 29.3-67 58.1-16.9 28.8-29.8 69-38.7 120.7-8 50.6-11.9 116.7-11.9 198.1 0 83.4 4 150.9 11.9 202.6 8.9 51.6 21.8 91.9 38.7 120.7 17.9 28.8 40.2 48.2 67 58.1s58.6 14.9 95.3 14.9c35.8 0 67-5 93.8-14.9 26.8-10.9 48.7-30.8 65.5-59.6 16.9-28.8 29.3-69 37.2-120.7 8.9-52.7 13.4-120.2 13.4-202.6zm1316.1 558.6V1039c0-53.6-13.9-92.9-41.7-117.7-27.8-25.8-66.5-38.7-116.2-38.7-43.7 0-79.9 11.9-108.7 35.8-28.8 23.8-43.2 60.6-43.2 110.2v592.9h-189.2v-592.9c0-53.6-14.4-91.4-43.2-113.2-27.8-22.8-64-34.3-108.7-34.3-31.8 0-62.6 7.4-92.4 22.3-28.8 14.9-51.1 34.8-67 59.6v658.4h-189.2V729.1l135.5-8.9 32.8 89.4c30.8-31.8 66-56.1 105.8-73 39.7-17.9 81.4-26.8 125.1-26.8 114.2 0 194.1 42.7 239.8 128.1 28.8-44.7 64.5-77 107.3-96.8 43.7-20.9 92.4-31.3 146-31.3 43.7 0 83.4 7 119.2 20.9 36.7 12.9 68 33.3 93.8 61.1 26.8 26.8 47.2 60.6 61.1 101.3 14.9 40.7 22.3 88.4 22.3 143v585.4h-189.2v-.1zm906.6-272.6c0 43.7-6.5 83.4-19.4 119.2-12.9 35.8-32.8 66.5-59.6 92.4-26.8 24.8-61.1 44.2-102.8 58.1-41.7 13.9-91.4 20.8-149 20.8-53.6 0-104.3-5.5-151.9-16.4-46.7-10.9-88.9-27.8-126.6-50.6l22.3-160.9c34.8 22.8 76 40.2 123.6 52.1 47.7 11.9 91.9 17.9 132.6 17.9 54.6 0 93.9-10.9 117.7-32.8 24.8-21.8 37.2-49.2 37.2-81.9 0-28.8-10.9-51.1-32.8-67-20.8-15.9-47.7-29.8-80.4-41.7-32.8-11.9-68-23.3-105.8-34.3-36.7-11.9-71.5-27.3-104.3-46.2-32.8-19.9-60.1-45.7-81.9-77.5-20.9-31.8-31.3-73.5-31.3-125.1 0-78.5 27.3-142 81.9-190.7 54.6-49.7 136.5-74.5 245.8-74.5 89.4 0 172.3 16.9 248.8 50.6l-16.4 157.9c-37.7-15.9-77.9-27.3-120.7-34.3-41.7-7.9-79.9-11.9-114.7-11.9-44.7 0-79.9 8.4-105.8 25.3-24.8 16.9-37.2 40.2-37.2 70 0 26.8 10.4 47.7 31.3 62.6 21.9 13.9 48.7 26.3 80.4 37.2 31.8 10.9 66 22.3 102.8 34.3 37.7 10.9 72.5 26.3 104.3 46.2 31.8 18.9 58.1 44.2 79 76 21.9 31.8 32.9 73.5 32.9 125.2z" style="fill:#2f80ff"/></svg>